<svg width="331" height="252" viewBox="0 0 331 252" fill="none" xmlns="http://www.w3.org/2000/svg">
<path d="M186.756 191.208C175.612 188.466 175.161 196.826 164.502 193.949C153.842 191.072 111.688 196.002 96.6678 209.771C81.6476 223.541 45.8095 199.358 41.4489 198.4C37.0882 197.441 30.7893 195.523 28.3666 188.331C25.944 181.139 33.6965 173.947 37.5727 168.193C41.4489 162.44 26.4285 161.002 22.0679 158.125C17.7072 155.248 7.5322 155.248 8.01672 142.302C8.50123 129.357 14.3156 126.001 22.0679 122.165C29.8202 118.329 28.3667 104.904 37.5727 101.548C46.7785 98.1918 61.3143 100.11 66.6441 92.9177C71.9739 85.7257 62.2834 78.0544 56.9536 67.0267C51.6239 55.9991 75.8501 33.9438 99.5917 38.2591C103.468 26.2725 110.251 14.2859 125.272 16.2037C140.292 18.1216 151.436 24.834 161.611 22.4367C171.786 20.0395 180.992 1.34041 197.466 7.09395C213.939 12.8475 195.009 38.2591 207.122 42.0947C219.235 45.9304 234.255 30.1081 247.338 38.2591C260.42 46.4099 251.231 66.0678 258.499 67.0267C265.767 67.9856 280.285 61.2732 288.522 67.0267C296.759 72.7803 276.911 96.1389 285.148 104.29C293.385 112.441 294.838 108.125 305.982 111.961C317.126 115.797 303.058 160.043 288.522 158.125C273.986 156.207 261.406 151.892 265.767 168.193C270.128 184.495 240.104 186.413 229.428 183.88C218.751 181.348 220.204 164.837 207.122 168.193C194.04 171.55 197.9 193.949 186.756 191.208Z" fill="#020659"/>
<path d="M111.124 218.925C107.393 204.715 110.59 197.928 111.124 185.85C111.656 173.772 117.382 164.202 117.382 164.202L165.354 160.65C165.354 160.65 169.991 174.206 172.656 180.6C175.321 186.995 179.052 208.019 172.656 223.65C166.259 239.281 158.869 234.624 145.533 236.688C130.359 239.036 114.855 233.135 111.124 218.925Z" fill="#0F846F" stroke="#0F846F"/>
<path d="M95.1633 136.016C88.2674 113.966 90.7428 96.4663 91.4501 82.4663C89.5052 70.2163 102.696 46.2413 120.095 44.1413C128.794 43.0913 134.417 40.9913 152.982 42.5663C184.169 45.212 185.433 61.3836 189.63 73.5C193.827 85.6163 188.569 125.558 186.447 136.016C184.326 146.475 175.308 158.025 167.305 162.791C159.301 167.558 138.66 171.716 127.521 169.091C116.382 166.466 102.059 158.066 95.1633 136.016Z" fill="#FFF0CF"/>
<path d="M116.471 52.6219C116.046 70.6819 82.6559 108.5 71.8701 121.8C71.8701 108.15 89.4174 50.5219 89.4174 40.0219C89.4174 29.5219 164.211 32.6719 193.916 34.2469C217.68 35.5069 210.318 61.6 203.422 77.7C201.123 78.05 203.422 92.4 195.465 90.3C187.508 88.2 178.533 73.6219 168.455 70.9969C158.376 68.3719 135.567 72.5719 127.08 69.4219C118.592 66.2719 117.001 57.6969 116.471 52.6219Z" fill="#020659"/>
<path d="M156.547 135.45C145.603 148.575 130.12 143.58 124.554 140.909C126.15 143.526 128.83 150.91 133.706 154.351C138.581 157.791 145.39 157.05 149.846 154.351C154.302 151.653 156.331 139.185 156.547 135.45Z" fill="#FF8473"/>
<path d="M89.3749 56.175C75.0528 75.6 80.0037 94.1501 80.8878 98.7001H83.5399C83.5399 98.7001 83.5399 71.925 93.6185 57.75C103.697 43.575 151.235 29.925 171.064 47.775C190.894 65.625 197.056 86.9749 198.117 94.5C198.117 81.9 193.343 61.425 173.717 44.1C154.09 26.775 103.697 36.75 89.3749 56.175Z" fill="#FDE79D" stroke="#FDE79D"/>
<path d="M144.524 106.831C149.47 105.028 157.97 98.2514 167.483 109.363C164.656 104.982 158.177 96.3385 144.524 106.831Z" fill="#020659" stroke="#020659"/>
<path d="M124.5 109.958C119.35 108.848 109.985 103.294 102.109 115.599C104.3 110.873 109.514 101.427 124.5 109.958Z" fill="#020659" stroke="#020659"/>
<path d="M132.258 127.876C136.471 118.378 134.592 102.982 133.125 96.4716C133.125 96.4716 136.861 107.614 135.874 115.705C134.889 123.796 132.258 127.876 132.258 127.876Z" fill="#020659"/>
<path d="M132.258 127.876C132.258 127.876 136.305 129.961 138.932 129.593M132.258 127.876C136.471 118.378 134.592 102.982 133.125 96.4716C133.125 96.4716 136.861 107.614 135.874 115.705C134.889 123.796 132.258 127.876 132.258 127.876Z" stroke="#020659"/>
<path d="M150.907 82.5328C156.388 82.1829 168.306 83.5828 172.125 91.9828C171.064 87.6078 165.336 79.5929 150.907 82.5328Z" fill="#020659" stroke="#020659"/>
<path d="M114.952 86.0102C109.494 86.6167 98.0087 90.063 95.7367 98.9955C96.0062 94.5042 100.226 85.6194 114.952 86.0102Z" fill="#020659" stroke="#020659"/>
<path d="M201.527 116.527C208.837 115.907 214.255 109.539 213.629 102.305C213.002 95.0697 206.568 89.7075 199.258 90.3276C191.949 90.9477 186.531 97.3154 187.157 104.55C187.784 111.785 194.217 117.147 201.527 116.527Z" fill="#FDE79D"/>
<path fill-rule="evenodd" clip-rule="evenodd" d="M184.784 92.2011L184.769 92.2024L187.006 118.035L187.021 118.034C187.744 123.25 191.944 127.078 196.644 126.68C201.342 126.281 204.823 121.801 204.639 116.54L204.653 116.537L204.605 115.976C204.605 115.967 204.604 115.959 204.603 115.95C204.603 115.943 204.601 115.935 204.6 115.926L202.469 91.3077C202.468 91.3026 202.468 91.2975 202.467 91.2924C202.467 91.2873 202.466 91.2823 202.466 91.2771L202.416 90.7053L202.401 90.7066C201.679 85.4904 197.479 81.6616 192.779 82.0602C188.08 82.4588 184.598 86.9394 184.784 92.2011Z" fill="#FF8473"/>
<path d="M80.0264 128.525C72.7615 129.539 66.0423 124.531 65.0186 117.341C63.9949 110.15 69.0544 103.5 76.3193 102.487C83.5843 101.474 90.3035 106.481 91.3272 113.672C92.3508 120.862 87.2913 127.512 80.0264 128.525Z" fill="#FDE79D"/>
<path fill-rule="evenodd" clip-rule="evenodd" d="M90.8512 101.11L90.8662 101.108L94.5213 126.782L94.5064 126.784C94.9806 132.028 91.751 136.689 87.0809 137.341C82.4107 137.992 78.0054 134.395 76.9971 129.226L76.9822 129.228L76.9027 128.669C76.9015 128.661 76.9003 128.652 76.8992 128.644C76.898 128.637 76.8968 128.628 76.8957 128.62L73.4123 104.153C73.4116 104.148 73.4108 104.143 73.4101 104.137C73.4095 104.132 73.4087 104.127 73.408 104.122L73.3271 103.554L73.342 103.552C72.8678 98.308 76.0973 93.6464 80.7674 92.9952C85.4376 92.3439 89.843 95.9407 90.8512 101.11Z" fill="#FF8473"/>
<path d="M154.988 132.815C155.5 131.5 159.105 130.725 159.105 133.829" stroke="#FF8473"/>
<path d="M125.753 138.723C124.971 137.544 121.281 137.545 121.946 140.578" stroke="#FF8473"/>
<path d="M84.1102 223.106C86.1857 222.055 86.7755 219.809 86.8109 218.817L84.7518 216.903C84.7518 216.903 80.2525 218.599 80.5684 220.055C80.8842 221.51 82.0346 224.157 84.1102 223.106Z" fill="#FDE79D" stroke="#FDE79D"/>
<path d="M84.0703 216.825C90.4357 213.885 106.172 187.25 113.245 174.3L118.019 180.6C114.625 193.2 95.7402 213.15 86.7226 221.55L84.0703 216.825Z" fill="#0F846F" stroke="#0F846F"/>
<path d="M196.185 218.906C194.109 217.855 193.519 215.609 193.484 214.617L195.544 212.703C195.544 212.703 200.043 214.4 199.727 215.855C199.412 217.31 198.261 219.957 196.185 218.906Z" fill="#FDE79D" stroke="#FDE79D"/>
<path d="M196.185 218.906C194.109 217.855 193.519 215.609 193.484 214.617L195.544 212.703C195.544 212.703 200.043 214.4 199.727 215.855C199.412 217.31 198.261 219.957 196.185 218.906Z" fill="#FDE79D" stroke="#FDE79D"/>
<path d="M196.526 212.625C190.161 209.685 174.423 183.05 167.351 170.1L162.577 176.4C165.972 189 184.856 208.95 193.874 217.35L196.526 212.625Z" fill="#0F846F" stroke="#0F846F"/>
<path d="M114.837 247.8C121.627 248.22 126.507 243.775 128.098 241.5V232.575C128.098 232.575 112.007 231.875 110.593 235.725C109.178 239.575 108.047 247.38 114.837 247.8Z" fill="#FDE79D" stroke="#FDE79D"/>
<path d="M176.899 211.05C171.807 209.79 139.768 225.575 124.385 233.625C124.385 236.075 125.234 241.185 128.628 242.025C132.872 243.075 191.221 233.625 196.526 226.275C201.83 218.925 183.265 212.625 176.899 211.05Z" fill="#020659" stroke="#020659"/>
<path d="M169.473 250.474C162.683 250.894 157.803 246.45 156.212 244.174V235.249C156.212 235.249 172.301 234.55 173.717 238.399C175.131 242.25 176.263 250.054 169.473 250.474Z" fill="#FDE79D" stroke="#FDE79D"/>
<path d="M107.808 212.1C112.901 210.84 144.94 226.625 160.323 234.675C160.323 237.125 159.474 242.235 156.079 243.075C151.836 244.125 93.4866 234.675 88.1821 227.325C82.8776 219.975 101.443 213.675 107.808 212.1Z" fill="#3A3C63" stroke="#3A3C63"/>
</svg>
