<svg width="262" height="253" viewBox="0 0 262 253" fill="none" xmlns="http://www.w3.org/2000/svg">
<path d="M132.857 0.190724C114.317 -1.86779 98.352 13.2281 97.322 21.8054C86.6785 15.8013 71.0566 7.39559 58.6964 21.8054C46.3363 36.2152 57.1514 42.3908 42.7312 49.081C28.311 55.7713 20.0711 56.8006 13.8908 74.2982C7.71054 91.7958 23.6759 97.4567 27.281 106.206C30.886 114.954 8.22566 111.161 13.8908 126.086C19.5559 141.01 -10.1607 150.979 3.74446 172.593C17.6497 194.208 31.2806 178.578 46.7309 196.076C59.0911 210.074 154.367 206.54 163.638 200.708C163.466 194.36 171.502 176.665 185.268 183.21C198.658 189.576 202.504 192.855 218.864 189.576C235.224 186.298 223.893 166.742 229.043 161.595C234.194 156.449 255.309 154.905 253.249 144.098C251.189 133.29 246.039 131.747 247.584 124.027C249.129 116.308 265.214 113.925 261.094 96.4275C256.974 78.9299 228.134 78.9299 230.709 68.6372C233.284 58.3445 230.709 35.7005 212.684 33.1274C194.658 30.5542 190.538 36.2152 176.633 25.9225C162.728 15.6298 151.398 2.24924 132.857 0.190724Z" fill="#020659"/>
<path d="M95.9691 213.044C92.0348 197.905 95.407 190.675 95.9691 177.806C96.5312 164.938 102.568 154.743 102.568 154.743L153.152 150.958C153.152 150.958 158.041 165.4 160.852 172.213C163.662 179.026 167.596 201.425 160.852 218.078C154.107 234.731 146.315 229.769 132.253 231.968C116.252 234.47 99.9035 228.183 95.9691 213.044Z" fill="#0F846F" stroke="#0F846F"/>
<path d="M171.276 187.874C168.144 185.637 159.158 164.755 155.056 155.433L149.463 158.23C151.7 167.925 158.747 189.105 166.802 194.027C176.87 200.18 179.666 194.027 179.666 191.23C179.666 188.434 181.111 168.844 178.501 150.945L171.789 153.183C173.094 169.03 174.409 190.112 171.276 187.874Z" fill="#0E7461" stroke="#0E7461"/>
<path d="M85.6988 188.434C88.8311 186.196 97.8177 165.315 101.919 155.993L107.513 158.789C105.275 168.484 98.2279 189.664 90.1735 194.586C80.1055 200.739 77.3089 194.586 77.3089 191.79C77.3089 188.993 75.7703 167.166 78.3805 149.268L85.0925 151.505C83.7874 167.353 82.5666 190.671 85.6988 188.434Z" fill="#0E7461" stroke="#0E7461"/>
<path d="M78.8164 117.556C75.2624 93.2229 80.7222 75.2058 83.7637 60.5846C83.7541 47.3734 101.443 24.2866 119.914 24.9109C129.15 25.2231 135.353 23.9287 154.435 28.6115C186.49 36.4777 185.144 53.7058 187.522 67.1433C189.9 80.5807 181.162 122.285 177.23 132.948C173.298 143.611 158.687 153.781 149.564 157.494C140.442 161.207 118.254 162.221 107.081 157.643C95.9083 153.065 82.3704 141.89 78.8164 117.556Z" fill="#FFF0CF"/>
<path d="M107.478 107.714C106.721 109.439 103.361 110.323 101.426 109.562C99.4912 108.802 98.9588 105.308 99.5777 103.51C100.197 101.712 103.089 100.872 105.63 101.662C108.171 102.452 108.235 105.989 107.478 107.714Z" fill="#020659"/>
<path d="M81.2304 140.441C78.2095 143.449 78.4499 147.73 78.9477 149.495L83.6138 151.714C83.6138 151.714 90.491 146.215 89.1199 143.831C87.7488 141.447 84.2513 137.432 81.2304 140.441Z" fill="#FDE79D" stroke="#FDE79D"/>
<path d="M175.817 142.678C178.838 145.687 178.598 149.968 178.1 151.732L173.434 153.951C173.434 153.951 166.557 148.452 167.928 146.069C169.299 143.685 172.796 139.669 175.817 142.678Z" fill="#FDE79D" stroke="#FDE79D"/>
<path d="M102.955 52.4654C101.316 71.6418 63.6802 109.675 51.4513 123.113C52.352 108.598 74.6219 48.4656 75.3148 37.3004C76.0077 26.1353 128.019 20.0091 159.177 23.624C184.104 26.5158 201.129 68.1415 192.809 84.811C190.367 85.0331 191.839 100.442 183.604 97.6896C175.369 94.9369 166.885 78.8491 156.451 75.3995C146.017 71.95 121.735 74.9264 113.011 71.0225C104.287 67.1187 103.178 57.8966 102.955 52.4654Z" fill="#020659"/>
<path d="M81.177 36.9095C64.163 56.0638 67.4673 76.236 67.9311 81.1505L70.7149 81.4182C70.7149 81.4182 73.4461 53.0233 85.4704 39.0082C97.4948 24.9931 148.783 15.3165 167.775 36.2483C186.767 57.1801 191.058 80.4439 191.404 88.5313C192.689 75.169 189.767 52.9733 170.934 32.6188C152.101 12.2642 98.191 17.7552 81.177 36.9095Z" fill="#FDE79D" stroke="#FDE79D"/>
<path d="M152.225 106.595C151.468 108.321 148.107 109.204 146.172 108.444C144.238 107.683 143.705 104.189 144.324 102.392C144.943 100.594 147.835 99.7534 150.376 100.543C152.917 101.333 152.982 104.87 152.225 106.595Z" fill="#020659"/>
<path d="M121.29 126.214C126.352 116.389 125.389 99.8949 124.275 92.8758C124.275 92.8758 127.472 104.967 125.9 113.507C124.328 122.047 121.29 126.214 121.29 126.214Z" fill="#020659"/>
<path d="M121.29 126.214C126.352 116.389 125.389 99.8949 124.275 92.8758C124.275 92.8758 127.472 104.967 125.9 113.507C124.328 122.047 121.29 126.214 121.29 126.214ZM121.29 126.214C121.29 126.214 125.413 128.694 128.201 128.475" stroke="#020659"/>
<path d="M141.149 81.6511C146.844 80.6042 159.489 80.486 164.506 88.3882C162.865 84.1543 155.895 76.8795 141.149 81.6511Z" fill="#020659" stroke="#020659"/>
<path d="M87.9638 95.6049C91.1033 90.7394 99.6806 81.4483 108.874 83.2081C104.666 81.5028 94.5915 81.5949 87.9638 95.6049Z" fill="#020659" stroke="#020659"/>
<circle cx="195.341" cy="95.9485" r="14.0076" transform="rotate(-2.75726 195.341 95.9485)" fill="#6A648D"/>
<path fill-rule="evenodd" clip-rule="evenodd" d="M179.34 83.3813L179.324 83.3821L180.653 110.973L180.669 110.972C181.222 116.554 185.496 120.796 190.463 120.557C195.431 120.318 199.278 115.684 199.292 110.075L199.308 110.074L199.279 109.479C199.279 109.468 199.278 109.458 199.278 109.447C199.277 109.437 199.277 109.426 199.276 109.416L198.011 83.1563C198.011 83.1411 198.01 83.1259 198.009 83.1106C198.009 83.0954 198.008 83.0802 198.007 83.065L197.979 82.4836L197.963 82.4844C197.41 76.9025 193.136 72.6605 188.168 72.8998C183.201 73.139 179.354 77.7721 179.34 83.3813Z" fill="#FF8473"/>
<circle r="14.0076" transform="matrix(-0.999028 0.0440809 0.0440809 0.999028 62.2998 98.3651)" fill="#6A648D"/>
<path fill-rule="evenodd" clip-rule="evenodd" d="M77.0756 84.3779L77.0915 84.3772L78.3091 111.973L78.2932 111.974C78.256 117.583 74.3907 122.2 69.4225 122.42C64.4543 122.639 60.1974 118.38 59.6663 112.796L59.6505 112.796L59.6245 112.208C59.6239 112.195 59.6233 112.182 59.6227 112.169C59.6222 112.156 59.6216 112.143 59.6211 112.13L58.462 85.8606C58.4615 85.8495 58.461 85.8385 58.4605 85.8275C58.46 85.8165 58.4595 85.8055 58.4591 85.7945L58.4329 85.2005L58.4487 85.1998C58.4857 79.5906 62.3511 74.973 67.3193 74.7538C72.2876 74.5346 76.5446 78.7938 77.0756 84.3779Z" fill="#FF8473"/>
<path d="M135.682 246.532C136.813 240.235 133.147 235.19 131.172 233.455L122.748 232.478C122.748 232.478 120.345 247.432 123.826 249.175C127.306 250.917 134.55 252.828 135.682 246.532Z" fill="#FDE79D" stroke="#FDE79D"/>
<path d="M106.928 183.638C105.188 188.256 116.616 219.911 122.548 235.162C124.86 235.43 129.775 235.196 130.936 232.117C132.386 228.268 129.785 172.729 123.423 166.97C117.06 161.211 109.104 177.864 106.928 183.638Z" fill="#3A3C63" stroke="#3A3C63"/>
<path d="M131.311 247.097C129.111 240.957 131.946 235.266 133.639 233.188L141.943 230.785C141.943 230.785 146.882 245.414 143.677 247.753C140.471 250.092 133.511 253.236 131.311 247.097Z" fill="#FDE79D" stroke="#FDE79D"/>
<path d="M150.583 179.979C153.113 184.329 146.964 218.084 143.573 234.417C141.294 235.077 136.313 235.671 134.627 232.771C132.519 229.146 125.762 172.869 131.187 166.005C136.612 159.141 147.422 174.541 150.583 179.979Z" fill="#3A3C63" stroke="#3A3C63"/>
<path d="M116.985 136.93C114.748 135.812 107.847 133.6 107.476 137.49C107.245 139.921 110.833 143.083 112.511 144.202C114.188 145.32 120.341 148.676 125.935 148.676C131.528 148.676 138.8 146.998 141.596 144.202L141.597 144.201C144.393 141.404 148.867 136.93 141.596 135.812C134.325 134.693 133.206 140.846 127.053 140.286C120.901 139.727 119.223 138.049 116.985 136.93Z" fill="#FF8473" stroke="#FF8473"/>
<path d="M123.138 143.642C121.348 142.747 117.172 144.015 115.307 145.32C115.307 145.32 122.578 148.117 126.494 148.117C130.409 148.117 138.24 146.215 138.24 145.32C138.24 144.202 132.087 143.642 130.409 143.642C129.067 143.642 127.24 145.507 126.494 146.439C126.121 145.88 124.928 144.537 123.138 143.642Z" fill="white" stroke="white"/>
</svg>
