<svg width="288" height="253" viewBox="0 0 288 253" fill="none" xmlns="http://www.w3.org/2000/svg">
<path d="M185.991 1.32C169.246 -6.64478 138.665 23.7161 134.918 31.469C126.869 22.3496 100.957 19 84.6793 28.5713C68.4018 38.1426 75.3213 72.631 59.6106 74.254C43.9 75.8781 28.6216 66.4366 17.147 80.9268C5.67239 95.4181 23.2863 95.8124 22.2631 106.592C21.2399 117.371 5.36717 112.285 0.775472 133.283C-3.81622 154.282 12.5425 176.913 35.0533 175.373C57.564 173.833 40.1693 196.465 49.89 202.577C59.6106 208.691 71.8153 200.259 78.553 199.965C85.2912 199.67 91.8848 209.25 97.9812 209.25C104.078 209.25 134.319 190.212 144.039 190.726C153.76 191.239 178.317 214.337 185.991 215.877C193.665 217.417 197.247 206.075 213.32 206.075C229.395 206.075 237.52 213.212 245.01 206.075C252.501 198.938 245.478 193.396 249.431 186.619C253.384 179.843 281.661 186.106 287.289 160.954C292.917 135.803 231.98 135.445 242.908 111.165C253.835 86.8841 261.105 76.3308 245.01 68.0483C228.915 59.7658 223.044 61.7389 213.32 47.5164C203.598 33.2935 202.735 9.28478 185.991 1.32Z" fill="#020659"/>
<path d="M103.794 214.896C100.195 201.004 103.279 194.369 103.794 182.559C104.308 170.75 109.83 161.395 109.83 161.395L156.098 157.921C156.098 157.921 160.57 171.174 163.141 177.426C165.711 183.678 169.31 204.234 163.141 219.516C156.972 234.799 149.844 230.245 136.982 232.263C122.346 234.56 107.393 228.79 103.794 214.896Z" fill="#0F846F" stroke="#0F846F"/>
<path d="M106.178 249.357C112.727 249.768 117.434 245.422 118.968 243.197V234.471C118.968 234.471 103.45 233.788 102.085 237.551C100.721 241.316 99.6295 248.946 106.178 249.357Z" fill="#FDE79D" stroke="#FDE79D"/>
<path d="M166.037 213.427C161.125 212.195 130.224 227.627 115.387 235.498C115.387 237.893 116.206 242.89 119.48 243.711C123.573 244.737 179.85 235.498 184.966 228.312C190.082 221.126 172.176 214.966 166.037 213.427Z" fill="#020659" stroke="#020659"/>
<path d="M158.875 251.973C152.326 252.383 147.619 248.037 146.085 245.813V237.087C146.085 237.087 161.603 236.403 162.968 240.167C164.332 243.931 165.423 251.562 158.875 251.973Z" fill="#FDE79D" stroke="#FDE79D"/>
<path d="M99.4004 214.453C104.312 213.221 135.213 228.654 150.05 236.525C150.05 238.92 149.231 243.916 145.957 244.737C141.864 245.764 85.5869 236.525 80.4709 229.339C75.3548 222.153 93.261 215.993 99.4004 214.453Z" fill="#3A3C63" stroke="#3A3C63"/>
<path d="M149.142 187.179C151.598 183.894 154.599 165.62 155.793 156.894C155.793 156.894 158.468 162.768 159.886 166.647C161.256 170.397 162.956 176.4 162.956 176.4C162.444 183.244 160.705 197.342 157.84 198.985C154.258 201.038 150.165 202.064 146.073 198.985C141.98 195.905 135.329 185.819 131.236 173.158L136.352 172.644C140.616 184.108 146.686 190.464 149.142 187.179Z" fill="#0E7461" stroke="#0E7461"/>
<path d="M120.755 190.876C117.784 188.051 111.771 170.542 109.135 162.14C109.135 162.14 106.641 166.94 105.655 170.24C104.666 173.555 104.12 178.966 104.12 178.966C105.769 185.627 111.056 202.841 114.155 203.979C118.029 205.399 122.235 205.723 125.755 201.998C129.275 198.273 134.434 187.355 136.352 174.184L131.236 172.644C128.95 184.662 123.725 193.702 120.755 190.876Z" fill="#0E7461" stroke="#0E7461"/>
<path d="M85.0425 128.741C80.3614 106.667 84.2802 89.8447 86.1937 76.2743C85.4037 64.1769 100.186 41.986 117.083 41.4631C125.531 41.2016 131.117 39.6487 148.812 42.8062C178.534 48.11 178.324 63.9665 181.288 76.1316C184.252 88.2966 178.741 127.006 175.782 137.004C172.821 147.002 160.085 157.181 151.978 161.122C143.871 165.063 123.678 167.307 113.21 163.777C102.741 160.246 89.7238 150.815 85.0425 128.741Z" fill="#FFF0CF"/>
<path d="M129.563 166.831C128.881 169.859 130.245 171.754 131.236 172.644L136.29 172.133C136.29 172.133 137.48 166.769 135.713 165.839C133.947 164.908 130.243 163.803 129.563 166.831Z" fill="#FDE79D" stroke="#FDE79D"/>
<path d="M112.897 113.494C112.348 114.657 110.043 115.196 108.741 114.639C107.439 114.081 107.144 111.684 107.6 110.469C108.057 109.252 110.042 108.735 111.757 109.324C113.471 109.913 113.446 112.33 112.897 113.494Z" fill="#020659"/>
<path d="M111.019 60.509C109.021 78.0565 73.6172 111.96 62.0855 123.967C63.2879 110.675 85.2185 56.0976 86.1435 45.8738C87.0685 35.6499 133.026 31.1123 161.421 35.2441C184.136 38.5496 200.372 77.459 192.33 92.5324C190.091 92.672 191.035 106.846 183.578 104.105C176.119 101.364 168.783 86.3852 159.333 82.9472C149.884 79.5101 127.604 81.6044 119.73 77.7947C111.855 73.9851 111.081 65.4962 111.019 60.509Z" fill="#020659"/>
<path d="M89.0075 49.4569C72.9518 66.5824 75.4465 85.1729 75.7422 89.6929L78.2805 90.0122C78.2805 90.0122 81.5187 64.0364 92.8784 51.4946C104.238 38.9532 151.384 31.4197 168.203 51.1181C185.02 70.816 188.337 92.2686 188.442 99.697C189.965 87.4735 187.873 67.0361 171.185 47.8713C154.498 28.7065 105.064 32.3319 89.0075 49.4569Z" fill="#FDE79D" stroke="#FDE79D"/>
<path d="M141.772 113.234C142.441 114.332 144.79 114.62 146.026 113.928C147.261 113.234 147.3 110.819 146.717 109.659C146.135 108.499 144.105 108.197 142.464 108.966C140.821 109.735 141.103 112.135 141.772 113.234Z" fill="#020659"/>
<path d="M121.929 130.759C126.812 121.879 126.363 106.724 125.528 100.256C125.528 100.256 128.135 111.432 126.475 119.224C124.815 127.016 121.929 130.759 121.929 130.759Z" fill="#020659"/>
<path d="M121.929 130.759C121.929 130.759 125.634 133.143 128.189 133.014M121.929 130.759C126.812 121.879 126.363 106.724 125.528 100.256C125.528 100.256 128.135 111.432 126.475 119.224C124.815 127.016 121.929 130.759 121.929 130.759Z" stroke="#020659"/>
<path d="M93.3552 100.589C95.9337 95.9469 103.215 86.9303 111.711 87.998C107.768 86.685 98.5777 87.3667 93.3552 100.589Z" fill="#020659" stroke="#020659"/>
<path d="M160.946 96.804C157.72 92.5898 149.206 84.7354 140.956 87.035C144.666 85.1594 153.856 84.488 160.946 96.804Z" fill="#020659" stroke="#020659"/>
<path d="M192.098 119.456C199.173 119.317 204.796 113.45 204.657 106.352C204.519 99.2541 198.671 93.6127 191.596 93.7518C184.522 93.8908 178.899 99.7576 179.037 106.856C179.176 113.954 185.023 119.595 192.098 119.456Z" fill="#CBEDC5"/>
<path fill-rule="evenodd" clip-rule="evenodd" d="M177.546 94.6564L177.531 94.6575L178.026 120.002L178.041 120.001C178.401 125.136 182.198 129.14 186.746 129.05C191.294 128.96 194.932 124.811 195.092 119.666H195.106L195.095 119.114C195.095 119.106 195.095 119.097 195.095 119.09C195.095 119.082 195.095 119.074 195.094 119.066L194.623 94.9121C194.622 94.9069 194.622 94.9028 194.622 94.8977C194.622 94.8926 194.622 94.8874 194.622 94.8823L194.611 94.3218H194.597C194.236 89.1868 190.439 85.1841 185.891 85.2734C181.344 85.3628 177.705 89.5122 177.546 94.6564Z" fill="#FF8473"/>
<path d="M70.3435 118.19C63.2682 118.301 57.4434 112.636 57.3333 105.537C57.2232 98.4385 62.8696 92.5945 69.9448 92.484C77.0201 92.3736 82.845 98.0386 82.9551 105.137C83.0651 112.236 77.4188 118.08 70.3435 118.19Z" fill="#CBEDC5"/>
<path fill-rule="evenodd" clip-rule="evenodd" d="M84.0184 92.8926H84.0337L84.4266 118.239H84.4123C84.2312 123.383 80.5769 127.518 76.0288 127.589C71.4805 127.66 67.6994 123.642 67.3597 118.505L67.3452 118.506L67.3366 117.954C67.3365 117.945 67.3364 117.937 67.3362 117.929C67.3361 117.922 67.336 117.914 67.3359 117.905L66.9613 93.7509C66.9612 93.7457 66.9611 93.7406 66.9611 93.7355C66.961 93.7303 66.9609 93.7252 66.9608 93.7201L66.9521 93.1596H66.9666C67.147 88.0153 70.8015 83.8802 75.3497 83.8094C79.898 83.7386 83.6786 87.7566 84.0184 92.8926Z" fill="#FF8473"/>
<path d="M145.39 137.477C130.212 147.655 125.608 145.088 114.533 142.816C116.072 145.373 117.617 147.885 122.319 151.248C127.022 154.612 133.588 153.886 137.887 151.248C142.185 148.61 145.181 141.129 145.39 137.477Z" fill="#FF8473"/>
</svg>
