<svg width="280" height="252" viewBox="0 0 280 252" fill="none" xmlns="http://www.w3.org/2000/svg">
<path d="M141.889 0.205199C122.089 -2.00954 105.038 14.2321 103.938 23.4603C92.571 17.0006 75.8871 7.95687 62.6867 23.4603C49.4862 38.9637 61.0367 45.608 45.6361 52.8062C30.2357 60.0042 21.4355 61.1115 14.8351 79.937C8.23473 98.7627 25.2854 104.853 29.1355 114.266C32.9856 123.679 8.78486 119.598 14.8351 135.655C20.8853 151.712 -10.8515 162.437 3.99903 185.693C18.8495 208.949 33.4072 192.133 49.9078 210.957C63.1082 226.018 164.861 222.216 174.762 215.94C174.579 209.112 183.161 190.074 197.863 197.116C212.162 203.964 216.27 207.492 233.742 203.964C251.215 200.438 239.114 179.397 244.614 173.86C250.115 168.323 272.665 166.662 270.465 155.034C268.265 143.407 262.765 141.746 264.415 133.44C266.065 125.135 283.244 122.572 278.844 103.746C274.444 84.9204 243.643 84.9204 246.393 73.8465C249.143 62.7725 246.393 38.41 227.142 35.6417C207.892 32.8732 203.492 38.9637 188.641 27.8898C173.79 16.816 161.69 2.41994 141.889 0.205199Z" fill="#020659"/>
<path d="M107.858 217.601C103.989 202.615 107.305 195.458 107.858 182.719C108.411 169.98 114.347 159.888 114.347 159.888L164.089 156.141C164.089 156.141 168.897 170.438 171.66 177.182C174.424 183.926 178.293 206.099 171.66 222.584C165.028 239.071 157.366 234.158 143.538 236.335C127.803 238.811 111.727 232.589 107.858 217.601Z" fill="#0F846F" stroke="#0F846F"/>
<path d="M139.758 223.095C138.127 221.298 138.378 218.863 138.707 217.871L141.408 216.731C141.408 216.731 145.157 220.051 144.317 221.374C143.477 222.696 141.389 224.891 139.758 223.095Z" fill="#FDE79D" stroke="#FDE79D"/>
<path d="M136.81 218.155L142.35 216.761C138.612 215.227 127.212 204.155 120.86 191.577C115.751 181.463 117.56 169.43 112.099 164.161C112.099 164.161 110.449 168.59 109.899 170.251C109.349 171.912 108.799 176.342 108.799 176.342C108.799 182.165 110.687 191.612 115.399 198.49C121.177 206.923 131.427 213.538 136.81 218.155Z" fill="#0E7461" stroke="#0E7461"/>
<path d="M111.51 248.055C118.55 248.498 123.61 243.809 125.26 241.411V231.998C125.26 231.998 108.576 231.259 107.11 235.32C105.643 239.38 104.469 247.611 111.51 248.055Z" fill="#FDE79D" stroke="#FDE79D"/>
<path d="M175.862 209.296C170.582 207.968 137.36 224.615 121.41 233.106C121.41 235.688 122.29 241.078 125.81 241.964C130.21 243.072 190.713 233.106 196.213 225.354C201.713 217.601 182.462 210.957 175.862 209.296Z" fill="#020659" stroke="#020659"/>
<path d="M168.161 250.876C161.121 251.319 156.061 246.631 154.411 244.232V234.818C154.411 234.818 171.095 234.08 172.561 238.142C174.028 242.201 175.201 250.433 168.161 250.876Z" fill="#FDE79D" stroke="#FDE79D"/>
<path d="M104.223 210.403C109.503 209.075 142.724 225.722 158.674 234.213C158.674 236.797 157.794 242.185 154.274 243.071C149.874 244.179 89.3721 234.213 83.8719 226.461C78.3718 218.708 97.6223 212.064 104.223 210.403Z" fill="#3A3C63" stroke="#3A3C63"/>
<path d="M89.2278 143.725C76.7595 122.866 74.8661 104.328 72.07 89.8147C67.0418 77.7556 74.3139 49.9109 91.3046 43.4163C99.8 40.169 104.935 36.6147 124.021 33.592C156.082 28.5146 161.408 44.7595 168.669 56.1191C175.931 67.4788 183.852 108.898 184.336 120.138C184.82 131.378 175.432 146.252 168.569 153.131C161.705 160.01 141.966 169.423 130.093 169.516C118.221 169.609 101.696 164.583 89.2278 143.725Z" fill="#FFF0CF"/>
<path d="M106.699 117.89C106.496 119.744 103.602 121.573 101.563 121.427C99.5235 121.281 97.9972 118.138 98.0495 116.256C98.1019 114.375 100.569 112.725 103.186 112.72C105.802 112.714 106.902 116.036 106.699 117.89Z" fill="#020659"/>
<path d="M134.739 145.851C135.018 146.724 132.908 147.809 130.305 148.651C127.703 149.493 125.592 149.773 125.313 148.9C125.034 148.026 126.456 146.444 129.058 145.603C131.661 144.761 134.46 144.977 134.739 145.851Z" fill="#FF8473"/>
<path d="M120.975 152.091C121.661 154.425 123.861 155.466 124.875 155.695L127.241 153.955C127.241 153.955 126.353 149.009 124.794 149.05C123.235 149.091 120.289 149.757 120.975 152.091Z" fill="#FBCD35" stroke="#FBCD35"/>
<path d="M122.51 155.034L126.91 152.82C128.399 158.655 138.901 177.223 151.476 187.964L157.711 161.125L164.862 156.696L168.712 169.431C168.712 169.431 165.961 185.488 161.011 196.008C159.389 199.455 151.476 197.822 151.476 197.822C139.151 191.89 129.437 165.918 122.51 155.034Z" fill="#0E7461" stroke="#0E7461"/>
<path d="M86.8305 61.3092C90.9289 79.9094 66.7893 126.973 59.2632 143.286C55.8425 129.308 59.0676 65.9133 56.4362 55.161C53.805 44.4085 102.623 37.3477 132.925 31.5438C157.166 26.9007 183.565 47.0714 180.657 65.2801C178.43 66.2125 184.341 80.3336 175.803 80.1697C167.266 80.0058 154.577 67.3182 143.772 67.1466C132.967 66.9748 111.056 76.9709 101.721 75.8641C92.3874 74.7575 88.6363 66.3739 86.8305 61.3092Z" fill="#020659"/>
<path d="M64.077 57.7683C53.7405 80.8968 62.77 98.9753 64.6497 103.481L67.3406 102.91C67.3406 102.91 61.5582 75.2779 68.7229 58.4805C75.8876 41.6834 121.173 17.3676 145.147 31.5222C169.121 45.6767 179.984 66.384 182.686 73.9215C179.965 60.9183 170.699 40.8153 147.044 27.159C123.389 13.5026 74.4135 34.6399 64.077 57.7683Z" fill="#FDE79D" stroke="#FDE79D"/>
<path d="M94.9851 118.121C94.5742 118.722 94.1846 119.286 93.7934 119.764C94.1854 119.174 94.5831 118.627 94.9851 118.121C97.2763 114.769 100.227 110.252 107.808 112.996C104.642 111.85 99.548 112.375 94.9851 118.121Z" fill="#020659"/>
<path d="M93.7934 119.764C96.3669 116.622 98.8679 109.761 107.808 112.996C104.363 111.749 98.6357 112.48 93.7934 119.764Z" stroke="#020659"/>
<path d="M146.507 100.965C146.304 102.819 143.41 104.648 141.371 104.502C139.332 104.356 137.806 101.213 137.858 99.3316C137.91 97.4502 140.378 95.8006 142.994 95.7949C145.611 95.7892 146.711 99.1114 146.507 100.965Z" fill="#020659"/>
<path d="M134.64 96.6434C134.106 97.3081 133.608 97.8982 133.139 98.3378C133.646 97.7385 134.146 97.1735 134.64 96.6434C138.062 92.3842 142.961 85.0576 151.269 94.5433C145.873 88.8821 140.748 90.0866 134.64 96.6434Z" fill="#020659"/>
<path d="M133.139 98.3379C136.615 95.0808 141.665 83.5771 151.269 94.5433C145.437 88.4243 139.921 90.3263 133.139 98.3379Z" stroke="#020659"/>
<path d="M122.816 130.147C124.678 119.369 118.927 104.072 115.819 97.771C115.819 97.771 122.373 108.248 123.407 116.78C124.442 125.312 122.816 130.147 122.816 130.147Z" fill="#020659"/>
<path d="M122.816 130.147C122.816 130.147 127.414 131.271 129.965 130.239M122.816 130.147C124.678 119.369 118.927 104.072 115.819 97.771C115.819 97.771 122.373 108.248 123.407 116.78C124.442 125.312 122.816 130.147 122.816 130.147Z" stroke="#020659"/>
<path d="M123.84 79.4002C127.619 75.1123 137.345 67.3128 146.017 70.4183C142.181 68.1164 132.377 66.6902 123.84 79.4002Z" fill="#020659" stroke="#020659"/>
<path d="M86.1374 112.134C91.8028 112.721 98.3091 109.631 105.459 103.541C99.5946 109.078 92.8089 112.826 86.1374 112.134Z" fill="#020659" stroke="#020659"/>
<path d="M193.305 92.7816C200.447 90.1438 204.112 82.1772 201.492 74.9876C198.872 67.798 190.958 64.1081 183.816 66.7458C176.674 69.3836 173.009 77.3503 175.629 84.5399C178.249 91.7294 186.163 95.4194 193.305 92.7816Z" fill="#E3C5ED"/>
<path fill-rule="evenodd" clip-rule="evenodd" d="M170.053 73.2233L179.193 98.3026L179.208 98.2971C181.368 103.406 186.625 106.149 191.217 104.453C195.807 102.758 198.055 97.2429 196.421 91.9399L196.436 91.9346L196.251 91.4278C196.242 91.4022 196.231 91.3765 196.222 91.3509C196.213 91.3254 196.204 91.2996 196.194 91.2742L187.078 66.2633L187.064 66.2688C184.904 61.1595 179.647 58.4167 175.056 60.1125C170.465 61.8081 168.217 67.323 169.852 72.6262L169.837 72.6316L170.047 73.2066C170.047 73.2093 170.049 73.2121 170.05 73.2148C170.051 73.2178 170.052 73.2205 170.053 73.2233Z" fill="#FF8473"/>
<path d="M69.1169 134.446C61.9645 137.055 54.0656 133.333 51.4741 126.133C48.8826 118.933 52.5799 110.981 59.7323 108.372C66.8846 105.763 74.7835 109.485 77.375 116.685C79.9665 123.886 76.2692 131.837 69.1169 134.446Z" fill="#E3C5ED"/>
<path fill-rule="evenodd" clip-rule="evenodd" d="M74.4256 104.462L83.4474 129.528L83.4324 129.533C85.046 134.843 82.7759 140.348 78.1783 142.025C73.5805 143.702 68.3342 140.938 66.1945 135.821L66.1799 135.826L65.989 135.295C65.9824 135.277 65.976 135.259 65.9694 135.241C65.963 135.223 65.9566 135.205 65.9502 135.187L56.9268 110.117L56.9417 110.112C55.3278 104.802 57.5979 99.2961 62.1957 97.6189C66.7937 95.9419 72.0403 98.706 74.1796 103.824L74.1942 103.819L74.383 104.344C74.3903 104.363 74.3974 104.383 74.4045 104.403C74.4117 104.423 74.4186 104.442 74.4256 104.462Z" fill="#FF8473"/>
</svg>
