<svg width="287" height="253" viewBox="0 0 287 253" fill="none" xmlns="http://www.w3.org/2000/svg">
<path d="M185.446 1.32C168.75 -6.64478 138.259 23.7161 134.523 31.469C126.497 22.3497 100.661 19 84.431 28.5713C68.2012 38.1426 75.1004 72.631 59.4357 74.254C43.7712 75.8781 28.5376 66.4366 17.0967 80.9269C5.65576 95.4182 23.218 95.8124 22.1978 106.592C21.1776 117.371 5.35143 112.285 0.773198 133.283C-3.80503 154.282 12.5057 176.913 34.9505 175.373C57.3952 173.833 40.0515 196.465 49.7437 202.578C59.4357 208.691 71.6047 200.259 78.3226 199.965C85.0411 199.67 91.6154 209.25 97.6938 209.25C103.772 209.25 133.925 190.212 143.617 190.726C153.309 191.239 177.794 214.337 185.446 215.877C193.098 217.417 196.668 206.075 212.695 206.075C228.723 206.075 236.823 213.212 244.291 206.075C251.76 198.938 244.758 193.396 248.699 186.619C252.641 179.843 280.835 186.106 286.446 160.955C292.058 135.803 231.3 135.445 242.196 111.165C253.09 86.8842 260.339 76.3308 244.291 68.0483C228.244 59.7658 222.39 61.7389 212.695 47.5164C203.001 33.2935 202.141 9.28478 185.446 1.32Z" fill="#020659"/>
<path d="M103.49 214.897C99.9016 201.004 102.976 194.369 103.49 182.559C104.002 170.75 109.508 161.395 109.508 161.395L155.64 157.921C155.64 157.921 160.1 171.174 162.662 177.426C165.225 183.678 168.813 204.235 162.662 219.516C156.511 234.799 149.405 230.245 136.58 232.263C121.987 234.56 107.078 228.79 103.49 214.897Z" fill="#0F846F" stroke="#0F846F"/>
<path d="M105.867 249.357C112.396 249.768 117.089 245.422 118.62 243.198V234.472C118.62 234.472 103.147 233.788 101.786 237.551C100.426 241.316 99.3374 248.946 105.867 249.357Z" fill="#FDE79D" stroke="#FDE79D"/>
<path d="M165.55 213.426C160.652 212.194 129.842 227.627 115.049 235.498C115.049 237.893 115.865 242.89 119.13 243.711C123.21 244.737 179.322 235.498 184.424 228.312C189.525 221.126 171.671 214.966 165.55 213.426Z" fill="#020659" stroke="#020659"/>
<path d="M158.409 251.973C151.88 252.383 147.187 248.037 145.656 245.813V237.087C145.656 237.087 161.129 236.403 162.49 240.167C163.85 243.931 164.938 251.562 158.409 251.973Z" fill="#FDE79D" stroke="#FDE79D"/>
<path d="M99.1089 214.453C104.006 213.221 134.817 228.654 149.61 236.525C149.61 238.92 148.794 243.916 145.529 244.738C141.448 245.764 85.336 236.525 80.235 229.339C75.1339 222.153 92.9876 215.993 99.1089 214.453Z" fill="#3A3C63" stroke="#3A3C63"/>
<path d="M148.705 187.179C151.153 183.894 154.146 165.62 155.336 156.894C155.336 156.894 158.003 162.767 159.417 166.647C160.783 170.397 162.478 176.399 162.478 176.399C161.968 183.244 160.233 197.342 157.377 198.984C153.806 201.038 149.725 202.064 145.644 198.984C141.563 195.905 134.932 185.818 130.851 173.157L135.952 172.644C140.203 184.108 146.256 190.464 148.705 187.179Z" fill="#0E7461" stroke="#0E7461"/>
<path d="M120.401 190.876C117.439 188.051 111.443 170.542 108.815 162.14C108.815 162.14 106.328 166.94 105.346 170.24C104.359 173.555 103.815 178.966 103.815 178.966C105.459 185.627 110.73 202.841 113.82 203.979C117.683 205.4 121.877 205.723 125.387 201.998C128.896 198.273 134.04 187.355 135.952 174.184L130.851 172.644C128.572 184.662 123.363 193.702 120.401 190.876Z" fill="#0E7461" stroke="#0E7461"/>
<path d="M84.7933 128.741C80.1259 106.668 84.0332 89.8448 85.941 76.2744C85.1534 64.1771 99.8925 41.9861 116.739 41.4632C125.163 41.2017 130.733 39.6488 148.375 42.8063C178.011 48.1101 177.801 63.9666 180.756 76.1317C183.712 88.2967 178.217 127.006 175.266 137.004C172.315 147.002 159.616 157.181 151.533 161.122C143.45 165.063 123.316 167.307 112.878 163.777C102.44 160.246 89.4608 150.815 84.7933 128.741Z" fill="#FFF0CF"/>
<path d="M129.183 166.831C128.503 169.859 129.863 171.754 130.851 172.644L135.891 172.133C135.891 172.133 137.077 166.769 135.315 165.839C133.554 164.908 129.861 163.803 129.183 166.831Z" fill="#FDE79D" stroke="#FDE79D"/>
<path d="M110.693 60.5092C108.701 78.0566 73.4013 111.96 61.9034 123.967C63.1023 110.675 84.9686 56.0977 85.8909 45.8739C86.8132 35.65 132.636 31.1124 160.947 35.2442C183.596 38.5497 199.784 77.4592 191.766 92.5326C189.534 92.6722 190.475 106.846 183.039 104.105C175.603 101.364 168.288 86.3853 158.866 82.9473C149.444 79.5103 127.23 81.6045 119.379 77.7949C111.527 73.9852 110.756 65.4963 110.693 60.5092Z" fill="#020659"/>
<path d="M88.7465 49.4569C72.7378 66.5824 75.2252 85.1729 75.5201 89.6929L78.0509 90.0122C78.0509 90.0122 81.2796 64.0364 92.606 51.4946C103.932 38.9532 150.94 31.4197 167.709 51.1181C184.478 70.816 187.784 92.2686 187.889 99.697C189.408 87.4734 187.322 67.0361 170.683 47.8713C154.045 28.7065 104.756 32.3319 88.7465 49.4569Z" fill="#FDE79D" stroke="#FDE79D"/>
<path d="M121.571 130.759C126.44 121.879 125.993 106.724 125.16 100.256C125.16 100.256 127.76 111.432 126.104 119.224C124.449 127.017 121.571 130.759 121.571 130.759Z" fill="#020659"/>
<path d="M121.571 130.759C121.571 130.759 125.265 133.143 127.813 133.014M121.571 130.759C126.44 121.879 125.993 106.724 125.16 100.256C125.16 100.256 127.76 111.432 126.104 119.224C124.449 127.017 121.571 130.759 121.571 130.759Z" stroke="#020659"/>
<path d="M93.0814 100.589C95.6524 95.9468 102.912 86.9302 111.383 87.9979C107.452 86.6849 98.2886 87.3665 93.0814 100.589Z" fill="#020659" stroke="#020659"/>
<path d="M160.474 96.804C157.257 92.5898 148.768 84.7354 140.543 87.035C144.241 85.1594 153.405 84.488 160.474 96.804Z" fill="#020659" stroke="#020659"/>
<path d="M191.535 119.456C198.589 119.317 204.195 113.45 204.057 106.352C203.919 99.2541 198.088 93.6127 191.034 93.7518C183.98 93.8908 178.374 99.7576 178.512 106.856C178.65 113.954 184.481 119.595 191.535 119.456Z" fill="#CBEDC5"/>
<path fill-rule="evenodd" clip-rule="evenodd" d="M177.025 94.6563L177.011 94.6574L177.503 120.002L177.519 120.001C177.878 125.136 181.664 129.139 186.199 129.05C190.733 128.96 194.36 124.811 194.52 119.666H194.534L194.523 119.114C194.523 119.106 194.523 119.097 194.523 119.09C194.523 119.082 194.523 119.074 194.522 119.065L194.052 94.912C194.051 94.9068 194.051 94.9027 194.051 94.8976C194.051 94.8924 194.051 94.8873 194.051 94.8822L194.04 94.3217H194.026C193.667 89.1867 189.881 85.184 185.346 85.2733C180.812 85.3626 177.184 89.5121 177.025 94.6563Z" fill="#FF8473"/>
<path d="M70.1371 118.19C63.0826 118.301 57.2748 112.636 57.1651 105.537C57.0553 98.4385 62.6851 92.5945 69.7396 92.484C76.7941 92.3736 82.6019 98.0386 82.7117 105.137C82.8214 112.236 77.1916 118.08 70.1371 118.19Z" fill="#CBEDC5"/>
<path fill-rule="evenodd" clip-rule="evenodd" d="M83.7721 92.8926H83.7874L84.1791 118.239H84.1649C83.9843 123.383 80.3407 127.518 75.8059 127.589C71.271 127.66 67.501 123.642 67.1623 118.505L67.1478 118.506L67.1393 117.954C67.1391 117.945 67.139 117.937 67.1388 117.929C67.1387 117.922 67.1386 117.914 67.1385 117.905L66.765 93.7509C66.7649 93.7457 66.7648 93.7406 66.7648 93.7355C66.7647 93.7303 66.7646 93.7252 66.7645 93.7201L66.7559 93.1596H66.7703C66.9502 88.0153 70.594 83.8802 75.1289 83.8094C79.6638 83.7386 83.4334 87.7566 83.7721 92.8926Z" fill="#FF8473"/>
<path d="M144.963 137.477C129.831 147.655 125.24 145.089 114.197 142.816C115.731 145.373 117.272 147.885 121.961 151.248C126.65 154.612 133.196 153.886 137.482 151.248C141.768 148.61 144.755 141.129 144.963 137.477Z" fill="#FF8473"/>
<path d="M148.646 104.527C146.056 104.716 144.274 108.322 143.707 110.102C141.997 107.433 138.3 102.685 137.185 105.051C136.069 107.417 138.799 116.523 140.304 120.781C144.163 115.284 151.236 104.339 148.646 104.527Z" fill="#FF5C28" stroke="#FF5C28"/>
<path d="M110.985 104.555C109.477 106.14 109.804 109.702 110.156 111.285C108.065 110.345 103.943 109.042 104.19 111.349C104.438 113.656 109.679 118.598 112.269 120.781C112.469 114.712 112.492 102.97 110.985 104.555Z" fill="#FF5C28" stroke="#FF5C28"/>
</svg>
