<svg width="238" height="252" viewBox="0 0 238 252" fill="none" xmlns="http://www.w3.org/2000/svg">
<path d="M130.439 1.04749C112.1 -1.00127 96.3077 14.0231 95.2888 22.5596C84.7608 16.584 75.4213 12.3157 63.1952 26.6573C50.969 40.9987 53.5161 54.828 44.8559 58.9256C36.1958 63.0231 27.5358 69.6817 21.4227 87.0963C15.3094 104.51 30.0827 114.242 33.6487 122.949C37.2147 131.657 16.8377 134.73 16.8376 147.535C16.8375 162.113 -9.65223 179.803 4.10221 201.315C17.8567 222.828 43.3278 206.437 58.6105 223.852C70.8367 237.784 92.2325 229.657 101.402 223.852C101.232 217.536 104.662 204.901 119.741 204.901C138.59 204.901 136.043 215.657 162.023 219.754C182.808 223.032 194.626 222.486 210.928 216.169C218.569 211.047 237.723 183.901 236.908 167.51C235.89 147.023 209.399 136.78 209.399 119.876C209.399 102.974 209.909 100.413 216.531 87.0963C223.154 73.7791 225.192 56.8768 209.399 46.6329C193.607 36.389 186.985 46.6329 173.23 36.389C159.476 26.1451 148.778 3.09624 130.439 1.04749Z" fill="#020659"/>
<path d="M86.1193 203.876C82.536 190.013 85.6074 183.393 86.1193 171.608C86.6312 159.825 92.1294 150.489 92.1294 150.489L138.2 147.023C138.2 147.023 142.653 160.249 145.212 166.486C147.771 172.725 151.355 193.237 145.212 208.486C139.07 223.736 131.973 219.192 119.165 221.206C104.592 223.498 89.7026 217.74 86.1193 203.876Z" fill="#0F846F" stroke="#0F846F"/>
<path d="M68.9694 120.455C63.5563 98.6038 66.8814 81.6915 68.3208 68.0927C67.122 56.055 81.0734 33.4152 97.8704 32.311C106.269 31.759 111.775 30.0176 129.49 32.5564C159.25 36.821 159.583 52.6418 162.948 64.6711C166.314 76.7005 162.153 115.494 159.549 125.567C156.946 135.64 144.619 146.23 136.686 150.44C128.753 154.649 108.735 157.583 98.197 154.424C87.6586 151.264 74.3825 142.306 68.9694 120.455Z" fill="#FFF0CF"/>
<path d="M93.9344 43.4488C92.5455 61.0177 58.473 96.0488 47.4078 108.421C48.1499 95.1242 68.1087 39.9394 68.6797 29.7116C69.2507 19.4838 114.383 26.5701 142.78 29.7116C165.498 32.2248 183.432 57.2722 175.944 72.5817C173.722 72.7983 175.145 86.9006 167.63 84.4246C160.115 81.9484 152.301 67.2626 142.78 64.1603C133.259 61.058 111.16 63.915 103.193 60.3874C95.2267 56.8598 94.1671 48.421 93.9344 43.4488Z" fill="#020659"/>
<path d="M65.2329 45.0963C51.4784 64.0476 56.2331 82.1452 57.0822 86.5843H59.6292C59.6292 86.5843 59.6292 60.4621 69.3083 46.6329C78.9873 32.8036 124.641 19.4865 143.684 36.9012C162.727 54.3158 168.646 75.145 169.664 82.4865C169.664 70.1938 165.08 50.2182 146.231 33.3158C127.382 16.4134 78.9873 26.1451 65.2329 45.0963Z" fill="#FDE79D" stroke="#FDE79D"/>
<path d="M94.6384 97.0893C95.9088 96.4742 97.031 95.874 97.9494 95.4516C96.8454 96.1075 95.7381 96.6494 94.6384 97.0893C89.5399 99.558 82.0542 102.267 75.7728 94.6774C78.4433 97.9039 86.3211 100.416 94.6384 97.0893Z" fill="#020659"/>
<path d="M97.9494 95.4516C93.3449 97.5689 83.6192 104.157 75.7728 94.6774C78.7964 98.3305 88.4952 101.068 97.9494 95.4516Z" stroke="#020659"/>
<path d="M121.642 97.2795C120.338 96.7403 119.184 96.2072 118.242 95.8398C119.382 96.4294 120.519 96.9052 121.642 97.2795C126.876 99.4438 134.507 101.707 140.335 93.7609C137.857 97.1391 130.139 100.111 121.642 97.2795Z" fill="#020659"/>
<path d="M118.242 95.8398C122.962 97.6821 133.054 103.687 140.335 93.7609C137.53 97.5857 128.007 100.89 118.242 95.8398Z" stroke="#020659"/>
<path d="M106.292 134.54C105.488 134.972 104.778 135.394 104.196 135.689C104.895 135.227 105.596 134.847 106.292 134.54C109.52 132.81 114.258 130.93 118.213 136.461C116.531 134.109 111.557 132.223 106.292 134.54Z" fill="#020659"/>
<path d="M104.196 135.689C107.111 134.208 113.272 129.553 118.213 136.461C116.308 133.799 110.184 131.733 104.196 135.689Z" stroke="#020659"/>
<path d="M104.98 114.534C109.536 105.51 108.571 90.4111 107.519 83.9897C107.519 83.9897 110.496 95.0449 109.11 102.873C107.725 110.702 104.98 114.534 104.98 114.534Z" fill="#020659"/>
<path d="M104.98 114.534C104.98 114.534 108.748 116.783 111.287 116.566M104.98 114.534C109.536 105.51 108.571 90.4111 107.519 83.9897C107.519 83.9897 110.496 95.0449 109.11 102.873C107.725 110.702 104.98 114.534 104.98 114.534Z" stroke="#020659"/>
<path d="M125.327 71.3745C130.603 71.3301 141.954 73.3387 145.159 81.7276C144.38 77.4086 139.322 69.2914 125.327 71.3745Z" fill="#020659" stroke="#020659"/>
<path d="M91.6819 71.7918C86.4151 72.0873 75.2155 74.8227 72.5512 83.4008C73.0538 79.0405 77.5836 70.6143 91.6819 71.7918Z" fill="#020659" stroke="#020659"/>
<path d="M174.805 104.329C181.827 103.749 187.053 97.556 186.476 90.4955C185.9 83.435 179.74 78.1811 172.718 78.7605C165.696 79.34 160.47 85.5333 161.046 92.5938C161.623 99.6543 167.783 104.908 174.805 104.329Z" fill="#C5DEED"/>
<path fill-rule="evenodd" clip-rule="evenodd" d="M158.81 80.5378L158.795 80.539L160.853 105.749L160.868 105.748C161.543 110.839 165.564 114.589 170.078 114.218C174.592 113.845 177.951 109.486 177.792 104.352L177.806 104.351L177.761 103.802C177.761 103.793 177.76 103.785 177.759 103.777C177.759 103.77 177.758 103.762 177.757 103.753L175.797 79.728C175.796 79.7229 175.796 79.718 175.795 79.713C175.795 79.7081 175.795 79.7032 175.794 79.6981L175.748 79.1401L175.734 79.1413C175.058 74.0499 171.038 70.2997 166.523 70.6722C162.01 71.0447 158.651 75.4038 158.81 80.5378Z" fill="#FF8473"/>
<path d="M54.2445 117.099C47.2158 117.594 41.1187 112.267 40.6263 105.2C40.1338 98.133 45.4324 92.0028 52.461 91.5076C59.4897 91.0125 65.5868 96.3399 66.0792 103.407C66.5717 110.474 61.2731 116.604 54.2445 117.099Z" fill="#C5DEED"/>
<path fill-rule="evenodd" clip-rule="evenodd" d="M66.4762 91.1497L66.4907 91.1487L68.2491 116.382L68.2347 116.383C68.333 121.518 64.9225 125.837 60.4042 126.156C55.886 126.473 51.9099 122.676 51.2949 117.576L51.2804 117.577L51.2422 117.027C51.2416 117.02 51.241 117.012 51.2405 117.004C51.2399 116.995 51.2394 116.987 51.2389 116.98L49.5631 92.9324C49.5627 92.9274 49.5623 92.9225 49.562 92.9175C49.5616 92.9126 49.5613 92.9075 49.5609 92.9026L49.522 92.344L49.5365 92.343C49.4382 87.2074 52.8487 82.889 57.3669 82.5706C61.8852 82.2523 65.8614 86.0505 66.4762 91.1497Z" fill="#FF8473"/>
<path d="M84.5909 116.291C84.5909 115.266 86.7985 111.34 88.1569 109.632C88.4966 111.681 89.1759 116.086 89.1759 117.315C89.1759 118.544 87.6815 118.539 86.6287 118.34C85.5228 118.131 84.5909 117.315 84.5909 116.291Z" fill="#41AEEB" stroke="#41AEEB"/>
<path d="M121.869 245.682C123.026 239.217 119.281 234.036 117.264 232.254L108.661 231.251C108.661 231.251 106.208 246.606 109.761 248.395C113.316 250.185 120.714 252.147 121.869 245.682Z" fill="#FDE79D" stroke="#FDE79D"/>
<path d="M92.5048 181.1C90.7271 185.843 102.399 218.347 108.457 234.007C110.818 234.282 115.838 234.041 117.023 230.88C118.504 226.927 115.848 169.899 109.35 163.985C102.853 158.072 94.7268 175.172 92.5048 181.1Z" fill="#3A3C63" stroke="#3A3C63"/>
<path d="M118.06 246.015C115.856 239.831 118.697 234.099 120.392 232.006L128.711 229.585C128.711 229.585 133.659 244.32 130.448 246.676C127.238 249.032 120.265 252.199 118.06 246.015Z" fill="#FDE79D" stroke="#FDE79D"/>
<path d="M137.367 178.412C139.901 182.794 133.741 216.792 130.344 233.244C128.061 233.908 123.072 234.507 121.382 231.585C119.27 227.934 112.502 171.251 117.937 164.337C123.371 157.423 134.199 172.936 137.367 178.412Z" fill="#3A3C63" stroke="#3A3C63"/>
<path d="M119.923 214.102C117.931 213.076 117.364 210.885 117.329 209.918L119.307 208.05C119.307 208.05 123.628 209.705 123.325 211.125C123.022 212.545 121.917 215.128 119.923 214.102Z" fill="#FDE79D" stroke="#FDE79D"/>
<path d="M120.25 207.975C114.137 205.106 99.0246 179.121 92.2322 166.487L87.6474 172.633C90.9077 184.926 109.043 204.389 117.703 212.585L120.25 207.975Z" fill="#0F846F" stroke="#0F846F"/>
<path d="M107.044 208.98C109.037 207.954 109.603 205.763 109.637 204.796L107.659 202.927C107.659 202.927 103.339 204.583 103.642 206.003C103.946 207.423 105.05 210.006 107.044 208.98Z" fill="#FDE79D" stroke="#FDE79D"/>
<path d="M106.717 202.853C112.83 199.984 127.943 173.999 134.735 161.365L139.32 167.511C136.06 179.804 117.924 199.267 109.264 207.462L106.717 202.853Z" fill="#0F846F" stroke="#0F846F"/>
</svg>
