<svg width="315" height="253" viewBox="0 0 315 253" fill="none" xmlns="http://www.w3.org/2000/svg">
<path d="M128.477 195.11C140.095 192.222 140.565 201.029 151.677 197.999C162.789 194.968 206.733 200.161 222.391 214.667C238.049 229.173 275.409 203.697 279.955 202.687C284.501 201.677 291.067 199.656 293.593 192.08C296.118 184.503 288.037 176.927 283.996 170.866C279.955 164.805 295.613 163.289 300.159 160.259C304.705 157.228 315.312 157.228 314.807 143.59C314.302 129.953 308.24 126.417 300.159 122.376C292.077 118.335 293.593 104.193 283.996 100.657C274.399 97.1213 259.246 99.1417 253.69 91.5652C248.134 83.9887 258.236 75.9071 263.792 64.2898C269.348 52.6725 244.093 29.438 219.343 33.9839C215.302 21.3564 208.231 8.72893 192.573 10.7493C176.915 12.7697 165.298 19.8411 154.69 17.3156C144.083 14.7902 134.486 -4.90874 117.313 1.15245C100.14 7.21363 119.873 33.9839 107.246 38.0247C94.6184 42.0655 78.9604 25.3972 65.3227 33.9839C51.685 42.5706 61.2646 63.2796 53.688 64.2898C46.1115 65.3 30.976 58.2286 22.3893 64.2898C13.8026 70.351 34.4943 94.9586 25.9076 103.545C17.3209 112.132 15.8056 107.586 4.18832 111.627C-7.42896 115.668 7.23633 162.279 22.3893 160.259C37.5423 158.238 50.6574 153.692 46.1115 170.866C41.5657 188.039 72.8644 190.06 83.994 187.392C95.1235 184.724 93.6082 167.33 107.246 170.866C120.884 174.402 116.86 197.999 128.477 195.11Z" fill="#020659"/>
<path d="M140.095 210.626C136.542 196.955 139.588 190.426 140.095 178.805C140.603 167.185 146.054 157.978 146.054 157.978L191.734 154.56C191.734 154.56 196.149 167.602 198.687 173.754C201.224 179.906 204.777 200.134 198.687 215.172C192.596 230.211 185.56 225.729 172.861 227.715C158.411 229.975 143.648 224.298 140.095 210.626Z" fill="#0F846F" stroke="#0F846F"/>
<path d="M124.648 124.408C121.438 102.434 126.369 86.1642 129.115 72.9607C129.107 61.0305 145.08 40.1821 161.761 40.7459C170.101 41.0278 175.703 39.859 192.935 44.0877C221.881 51.1912 220.666 66.7489 222.813 78.8835C224.961 91.018 217.07 128.679 213.52 138.308C209.969 147.937 196.774 157.12 188.536 160.473C180.298 163.827 160.261 164.743 150.172 160.608C140.082 156.474 127.857 146.382 124.648 124.408Z" fill="#FFF0CF"/>
<path d="M150.488 115.509C149.805 117.067 146.77 117.865 145.023 117.178C143.276 116.491 142.795 113.336 143.354 111.713C143.913 110.089 146.525 109.33 148.819 110.043C151.114 110.757 151.172 113.951 150.488 115.509Z" fill="#020659"/>
<path d="M126.786 145.062C124.058 147.779 124.275 151.645 124.724 153.239L128.938 155.242C128.938 155.242 135.148 150.277 133.91 148.124C132.672 145.971 129.514 142.345 126.786 145.062Z" fill="#FDE79D" stroke="#FDE79D"/>
<path d="M212.201 147.083C214.929 149.8 214.712 153.666 214.263 155.259L210.049 157.263C210.049 157.263 203.838 152.297 205.077 150.145C206.315 147.992 209.473 144.366 212.201 147.083Z" fill="#FDE79D" stroke="#FDE79D"/>
<path d="M145.712 60.8969C144.233 78.2139 110.246 112.559 99.2026 124.695C100.016 111.587 120.127 57.2849 120.752 47.2023C121.378 37.1197 168.346 31.5876 196.483 34.8519C218.993 37.4634 234.368 75.053 226.855 90.1063C224.649 90.3068 225.979 104.222 218.542 101.736C211.105 99.2503 203.444 84.7224 194.022 81.6073C184.6 78.4923 162.672 81.1801 154.794 77.6547C146.915 74.1294 145.914 65.8014 145.712 60.8969Z" fill="#020659"/>
<path d="M126.737 51.5694C111.373 68.8665 114.357 87.0828 114.776 91.5208L117.29 91.7626C117.29 91.7626 119.756 66.1207 130.614 53.4646C141.473 40.8084 187.788 32.0701 204.939 50.9723C222.09 69.8746 225.964 90.8827 226.277 98.186C227.437 86.1193 224.798 66.0757 207.791 47.6947C190.784 29.3136 142.102 34.2723 126.737 51.5694Z" fill="#FDE79D" stroke="#FDE79D"/>
<path d="M190.896 114.499C190.213 116.057 187.178 116.855 185.431 116.168C183.684 115.481 183.203 112.326 183.762 110.702C184.321 109.079 186.933 108.32 189.227 109.033C191.522 109.746 191.58 112.94 190.896 114.499Z" fill="#020659"/>
<path d="M162.961 132.215C167.532 123.343 166.663 108.448 165.657 102.109C165.657 102.109 168.543 113.029 167.124 120.74C165.705 128.452 162.961 132.215 162.961 132.215Z" fill="#020659"/>
<path d="M162.961 132.215C167.532 123.343 166.663 108.448 165.657 102.109C165.657 102.109 168.543 113.029 167.124 120.74C165.705 128.452 162.961 132.215 162.961 132.215ZM162.961 132.215C162.961 132.215 166.684 134.455 169.202 134.257" stroke="#020659"/>
<path d="M180.895 88.8753C186.038 87.93 197.456 87.8232 201.987 94.9592C200.505 91.1359 194.211 84.5664 180.895 88.8753Z" fill="#020659" stroke="#020659"/>
<path d="M129.769 101.476C132.604 97.0826 140.349 88.6923 148.652 90.2815C144.851 88.7416 135.754 88.8247 129.769 101.476Z" fill="#020659" stroke="#020659"/>
<circle cx="229.832" cy="104.884" r="12.6494" transform="rotate(-2.75726 229.832 104.884)" fill="#6A648D"/>
<path fill-rule="evenodd" clip-rule="evenodd" d="M215.382 93.5356L215.368 93.5363L216.568 118.452L216.582 118.451C217.082 123.492 220.942 127.322 225.427 127.106C229.913 126.89 233.387 122.707 233.4 117.641L233.414 117.641L233.388 117.095C233.388 117.088 233.387 117.081 233.387 117.074C233.387 117.067 233.386 117.06 233.386 117.054L232.242 93.3084C232.242 93.3027 232.242 93.2969 232.242 93.2911C232.241 93.2853 232.241 93.2796 232.241 93.2738L232.214 92.725L232.2 92.7257C231.7 87.685 227.84 83.8543 223.355 84.0703C218.869 84.2863 215.395 88.4702 215.382 93.5356Z" fill="#FF8473"/>
<circle r="12.6494" transform="matrix(-0.999028 0.0440809 0.0440809 0.999028 109.691 107.066)" fill="#6A648D"/>
<path fill-rule="evenodd" clip-rule="evenodd" d="M123.034 94.4352L123.048 94.4346L124.122 118.78C124.122 118.783 124.122 118.786 124.123 118.788C124.123 118.791 124.123 118.794 124.123 118.797L124.148 119.355L124.133 119.355C124.1 124.421 120.609 128.591 116.123 128.788C111.636 128.986 107.792 125.14 107.312 120.098L107.298 120.098L107.273 119.532L106.225 95.7751C106.224 95.7649 106.224 95.7547 106.223 95.7444C106.223 95.7342 106.223 95.7239 106.222 95.7137L106.198 95.178L106.213 95.1774C106.246 90.1122 109.737 85.9424 114.223 85.7444C118.71 85.5465 122.554 89.3926 123.034 94.4352Z" fill="#FF8473"/>
<path d="M158.601 141.428C154.56 140.418 150.854 141.956 150.52 145.469C150.31 147.664 151.53 149.509 153.045 150.52C154.56 151.53 161.632 153.045 166.683 153.045C171.734 153.045 176.785 152.035 180.32 150.52C183.856 149.004 187.392 142.438 180.825 141.428C174.259 140.418 173.249 145.974 167.693 145.469C162.137 144.963 162.642 142.438 158.601 141.428Z" fill="#FF8473" stroke="#FF8473"/>
<path d="M164.157 148.499C162.541 147.691 158.769 149.846 157.086 151.024C157.086 151.024 163.652 152.54 167.188 152.54C170.723 152.54 177.29 151.833 177.29 151.024C177.29 150.014 172.239 148.499 170.723 148.499C169.511 148.499 167.861 150.183 167.188 151.024C166.851 150.519 165.774 149.307 164.157 148.499Z" fill="white" stroke="white"/>
<path d="M174.052 246.801C175.198 240.425 171.485 235.317 169.486 233.56L160.956 232.571C160.956 232.571 158.523 247.713 162.047 249.477C165.571 251.242 172.907 253.177 174.052 246.801Z" fill="#FDE79D" stroke="#FDE79D"/>
<path d="M144.937 183.115C143.174 187.792 154.747 219.845 160.753 235.288C163.095 235.559 168.071 235.322 169.246 232.204C170.715 228.307 168.082 172.069 161.639 166.237C155.196 160.405 147.14 177.268 144.937 183.115Z" fill="#3A3C63" stroke="#3A3C63"/>
<path d="M170.275 247.13C168.09 241.032 170.906 235.379 172.587 233.315L180.836 230.928C180.836 230.928 185.742 245.458 182.558 247.782C179.374 250.105 172.461 253.228 170.275 247.13Z" fill="#FDE79D" stroke="#FDE79D"/>
<path d="M189.418 180.464C191.931 184.785 185.823 218.312 182.455 234.535C180.191 235.19 175.244 235.781 173.569 232.9C171.475 229.299 164.764 173.401 170.153 166.583C175.541 159.766 186.278 175.063 189.418 180.464Z" fill="#3A3C63" stroke="#3A3C63"/>
<path d="M208.101 187.897C205.272 185.876 197.157 167.019 193.453 158.601L188.402 161.127C190.422 169.882 196.787 189.008 204.06 193.453C213.152 199.009 215.677 193.453 215.677 190.927C215.677 188.402 216.982 170.712 214.625 154.549L208.564 156.569C209.742 170.88 210.929 189.917 208.101 187.897Z" fill="#0E7461" stroke="#0E7461"/>
<path d="M130.821 188.402C133.649 186.382 141.764 167.525 145.469 159.106L150.52 161.632C148.499 170.387 142.135 189.513 134.861 193.958C125.77 199.514 123.244 193.958 123.244 191.433C123.244 188.907 121.855 169.197 124.212 153.033L130.273 155.054C129.095 169.365 127.992 190.422 130.821 188.402Z" fill="#0E7461" stroke="#0E7461"/>
</svg>
