<svg width="252" height="253" viewBox="0 0 252 253" fill="none" xmlns="http://www.w3.org/2000/svg">
<path d="M127.645 0.183242C109.832 -1.79451 94.4934 12.7092 93.5038 20.9499C83.2779 15.1814 68.2689 7.10544 56.3936 20.9499C44.5184 34.7943 54.9092 40.7277 41.0548 47.1555C27.2003 53.5833 19.2836 54.5721 13.3458 71.3833C7.40804 88.1944 22.7471 93.6333 26.2107 102.039C29.6743 110.444 7.90295 106.8 13.3458 121.139C18.7887 135.478 -9.76211 145.055 3.59756 165.822C16.9572 186.589 30.0534 171.572 44.8975 188.383C56.7728 201.832 148.311 198.437 157.218 192.833C157.053 186.735 164.774 169.734 177.999 176.022C190.864 182.139 194.559 185.289 210.277 182.139C225.995 178.989 215.109 160.2 220.058 155.256C225.006 150.311 245.292 148.828 243.313 138.444C241.334 128.061 236.386 126.578 237.87 119.161C239.355 111.744 254.809 109.455 250.851 92.6444C246.893 75.8333 219.184 75.8333 221.658 65.9444C224.132 56.0555 221.658 34.2999 204.34 31.8277C187.021 29.3555 183.063 34.7944 169.703 24.9055C156.344 15.0166 145.458 2.16099 127.645 0.183242Z" fill="#020659"/>
<path d="M88.9085 207.981C85.1285 193.436 88.3685 186.489 88.9085 174.126C89.4486 161.763 95.2486 151.968 95.2486 151.968L143.848 148.331C143.848 148.331 148.546 162.207 151.246 168.752C153.945 175.297 157.725 196.818 151.245 212.818C144.766 228.817 137.279 224.05 123.769 226.163C108.395 228.567 92.6885 222.526 88.9085 207.981Z" fill="#0F846F" stroke="#0F846F"/>
<path d="M72.4287 116.24C69.0141 92.8609 74.2597 75.5506 77.1819 61.5031C77.1726 48.8102 94.1672 26.6291 111.914 27.229C120.787 27.5289 126.747 26.2853 145.081 30.7844C175.878 38.3419 174.585 54.8942 176.869 67.8045C179.154 80.7147 170.759 120.783 166.982 131.027C163.204 141.272 149.165 151.043 140.401 154.61C131.636 158.178 110.319 159.152 99.5844 154.754C88.85 150.355 75.8433 139.618 72.4287 116.24Z" fill="#FFF0CF"/>
<path d="M99.966 106.783C99.2387 108.441 96.0102 109.29 94.1513 108.559C92.2924 107.828 91.7809 104.472 92.3754 102.745C92.97 101.017 95.749 100.21 98.1901 100.969C100.631 101.727 100.693 105.126 99.966 106.783Z" fill="#020659"/>
<path d="M94.8845 48.6804C93.3104 67.1044 57.151 103.645 45.4019 116.556C46.2673 102.611 67.6635 44.8375 68.3292 34.1104C68.9949 23.3832 118.965 17.4975 148.901 20.9705C172.85 23.7489 189.207 63.7414 181.214 79.757C178.868 79.9703 180.282 94.775 172.37 92.1303C164.458 89.4856 156.307 74.0289 146.282 70.7147C136.258 67.4006 112.928 70.2602 104.547 66.5095C96.1646 62.7588 95.0991 53.8985 94.8845 48.6804Z" fill="#020659"/>
<path d="M74.6967 38.7566C58.3501 57.1594 61.5248 76.5402 61.9704 81.2619L64.645 81.5192C64.645 81.5192 67.269 54.2382 78.8217 40.7729C90.3743 27.3077 139.65 18.0108 157.897 38.1214C176.144 58.232 180.267 80.5831 180.599 88.3532C181.834 75.5151 179.026 54.1902 160.932 34.6342C142.838 15.0782 91.0432 20.3538 74.6967 38.7566Z" fill="#FDE79D" stroke="#FDE79D"/>
<path d="M142.957 105.709C142.23 107.366 139.001 108.216 137.142 107.485C135.283 106.754 134.772 103.397 135.366 101.67C135.961 99.9427 138.74 99.1353 141.181 99.894C143.622 100.653 143.684 104.051 142.957 105.709Z" fill="#020659"/>
<path d="M113.236 124.557C118.099 115.118 117.174 99.271 116.104 92.5273C116.104 92.5273 119.175 104.145 117.665 112.349C116.155 120.554 113.236 124.557 113.236 124.557Z" fill="#020659"/>
<path d="M113.236 124.557C118.099 115.118 117.174 99.271 116.104 92.5273C116.104 92.5273 119.175 104.145 117.665 112.349C116.155 120.554 113.236 124.557 113.236 124.557ZM113.236 124.557C113.236 124.557 117.197 126.941 119.876 126.73" stroke="#020659"/>
<path d="M132.316 78.4475C137.788 77.4416 149.936 77.328 154.757 84.9203C153.18 80.8525 146.483 73.8631 132.316 78.4475Z" fill="#020659" stroke="#020659"/>
<path d="M77.9217 91.8541C80.938 87.1794 89.1789 78.2528 98.0118 79.9435C93.9683 78.3052 84.2894 78.3937 77.9217 91.8541Z" fill="#020659" stroke="#020659"/>
<circle cx="184.382" cy="95.4797" r="13.458" transform="rotate(-2.75726 184.382 95.4797)" fill="#6A648D"/>
<path fill-rule="evenodd" clip-rule="evenodd" d="M169.008 83.4054L168.993 83.4062L170.27 109.915L170.285 109.914C170.817 115.277 174.923 119.352 179.696 119.123C184.468 118.893 188.164 114.441 188.178 109.052L188.193 109.051L188.165 108.478C188.165 108.468 188.164 108.459 188.164 108.449C188.163 108.44 188.163 108.43 188.163 108.421L186.947 83.1757C186.946 83.1656 186.946 83.1556 186.945 83.1455C186.945 83.1354 186.944 83.1254 186.944 83.1153L186.916 82.543L186.901 82.5437C186.369 77.1809 182.263 73.1054 177.49 73.3352C172.718 73.5651 169.022 78.0163 169.008 83.4054Z" fill="#FF8473"/>
<circle r="13.458" transform="matrix(-0.999028 0.0440809 0.0440809 0.999028 56.5601 97.8017)" fill="#6A648D"/>
<path fill-rule="evenodd" clip-rule="evenodd" d="M70.7562 84.3634L70.7715 84.3628L71.9413 110.876L71.9261 110.877C71.8903 116.266 68.1767 120.702 63.4034 120.913C58.6302 121.123 54.5402 117.031 54.03 111.666L54.0148 111.667L53.9892 111.088C53.9888 111.08 53.9885 111.072 53.9881 111.064C53.9878 111.057 53.9875 111.049 53.9871 111.041L52.872 85.7678C52.8718 85.7639 52.8716 85.76 52.8715 85.7561C52.8713 85.7522 52.8711 85.7483 52.8709 85.7444L52.8449 85.1538L52.8601 85.1531C52.8957 79.7639 56.6094 75.3274 61.3828 75.1168C66.1561 74.9062 70.2462 78.9984 70.7562 84.3634Z" fill="#FF8473"/>
<path d="M125.037 246.469C126.256 239.685 122.305 234.25 120.178 232.381L111.103 231.329C111.103 231.329 108.514 247.439 112.264 249.316C116.013 251.193 123.817 253.252 125.037 246.469Z" fill="#FDE79D" stroke="#FDE79D"/>
<path d="M94.0595 178.711C92.1843 183.687 104.497 217.79 110.887 234.219C113.378 234.508 118.673 234.256 119.923 230.939C121.486 226.792 118.684 166.959 111.83 160.754C104.975 154.55 96.4035 172.491 94.0595 178.711Z" fill="#3A3C63" stroke="#3A3C63"/>
<path d="M121.018 246.818C118.693 240.33 121.689 234.316 123.478 232.12L132.253 229.581C132.253 229.581 137.473 245.04 134.086 247.512C130.698 249.984 123.343 253.306 121.018 246.818Z" fill="#FDE79D" stroke="#FDE79D"/>
<path d="M141.385 175.891C144.058 180.488 137.559 216.158 133.976 233.419C131.567 234.116 126.304 234.744 124.522 231.679C122.294 227.848 115.154 168.377 120.887 161.123C126.621 153.87 138.043 170.144 141.385 175.891Z" fill="#3A3C63" stroke="#3A3C63"/>
<path d="M59.8667 214.304C62.1706 213.125 62.8253 210.606 62.8646 209.494L60.579 207.346C60.579 207.346 55.5847 209.249 55.9353 210.882C56.2858 212.514 57.5629 215.483 59.8667 214.304Z" fill="#FDE79D" stroke="#FDE79D"/>
<path d="M62.0012 204.604C69.1055 201.175 86.6689 170.108 94.5626 155.003L99.8908 162.351C96.1018 177.048 75.0258 200.317 64.9613 210.115L62.0012 204.604Z" fill="#0F846F" stroke="#0F846F"/>
<path d="M177.795 212.802C175.491 211.623 174.836 209.104 174.797 207.992L177.082 205.845C177.082 205.845 182.077 207.748 181.726 209.38C181.376 211.012 180.098 213.982 177.795 212.802Z" fill="#FDE79D" stroke="#FDE79D"/>
<path d="M175.67 204.804C169.212 201.589 153.245 172.464 146.069 158.303L141.225 165.192C144.669 178.97 163.83 200.785 172.979 209.971L175.67 204.804Z" fill="#0F846F" stroke="#0F846F"/>
<ellipse cx="120.558" cy="141.08" rx="6.88902" ry="3.44451" fill="#FF8473"/>
</svg>
